<?xml version="1.0" encoding="UTF-8"?>
<svg xmlns="http://www.w3.org/2000/svg" width="526" height="525" viewBox="-12 -12 526 525">
  <path d="M 501.11 250.5 L 499.08 254.83 L 498.46 259.14 L 499.27 263.51 L 497.01 267.7 L 496.18 271.95 L 494.27 276.07 L 491.31 280.01 L 490.26 284.13 L 487.17 287.91 L 483.03 291.41 L 479.34 294.88 L 475.11 298.14 L 467.42 300.46 L 466.03 304.11 L 463.13 307.34 L 452.97 308.42 L 449.06 311.05 L 440.37 312.03 L 427.92 311.42 L 416.49 310.73 L 410.28 311.64 L 406.87 313.48 L 409.43 317.75 L 411.43 321.93 L 419.22 328.94 L 425.47 335.59 L 432.42 342.94 L 437.4 349.61 L 438.27 354.3 L 438.16 358.56 L 442.25 365.41 L 442.33 370.06 L 441.47 374.2 L 444.26 380.86 L 444.41 385.93 L 442.02 389.28 L 443.16 395.31 L 441.39 399.25 L 438.38 402.24 L 436.85 406.45 L 434.48 410 L 431.3 412.84 L 429.17 416.64 L 428.76 422.16 L 425.74 425.24 L 423.7 429.34 L 420.55 432.32 L 416.35 434.14 L 412.47 436.24 L 409.2 439.03 L 404.63 440.21 L 399.44 440.5 L 394.9 441.47 L 388.31 439.5 L 384.71 441.46 L 379.68 441.27 L 373.61 439.3 L 368.97 439.29 L 363.85 438.32 L 357.06 434.2 L 351.17 431.21 L 344.95 427.19 L 337.99 421.23 L 332.81 418.23 L 327.33 414.19 L 318.56 402.25 L 314.34 399.73 L 313.41 404.98 L 313.4 413.05 L 314.48 424.92 L 313.22 431.2 L 312.38 439.39 L 310.38 444.74 L 310.43 457.76 L 307.97 463.11 L 304.49 465.05 L 301.75 470.33 L 298.53 474.12 L 295.48 479.33 L 291.65 481.06 L 287.55 481.24 L 284.14 486.3 L 280.45 490.31 L 276.46 492.78 L 272.32 494.18 L 267.96 493.02 L 263.83 495.28 L 259.62 497.46 L 255.34 499.08 L 251 499.11 L 246.7 497.08 L 242.48 494.47 L 238.17 495.28 L 233.83 496.01 L 229.51 496.18 L 225.54 492.78 L 221.43 491.31 L 217.3 490.26 L 213.52 487.16 L 210.35 481.06 L 206.52 479.33 L 202.84 477.05 L 199.57 473.25 L 196.42 469.41 L 193.12 466.49 L 192.26 455.36 L 189.57 451.43 L 188.7 442.25 L 186.5 437.82 L 185.98 429.15 L 187.53 415.85 L 187.65 407.3 L 186.09 403.41 L 181.2 407.28 L 173.19 417.36 L 169.19 418.23 L 164.46 420.34 L 155.41 430.28 L 150.83 431.21 L 144.19 435.5 L 138.15 438.32 L 131.18 442.26 L 125.67 443.49 L 120.92 443.35 L 116.72 442.28 L 111.63 442.33 L 106.5 442.26 L 101.94 441.29 L 97.37 440.21 L 94.41 437.12 L 89.53 436.24 L 86.65 433.03 L 83.83 429.77 L 79.34 428.26 L 75.56 425.94 L 72.52 422.85 L 69.54 419.71 L 65.87 417.19 L 63.75 413.28 L 61.7 409.34 L 58.57 406.33 L 56.67 402.33 L 57.64 396.21 L 56.74 391.64 L 56.77 386.5 L 56.91 381.42 L 56.75 376.65 L 59.67 370.06 L 59.75 365.41 L 59.51 361.06 L 60.67 356 L 67.69 347.97 L 72.7 341.35 L 74.73 336.47 L 76.89 331.69 L 86.91 323.56 L 89.81 318.92 L 101.62 310.85 L 97.32 309.49 L 83.63 311.42 L 79.75 309.47 L 63.53 311.41 L 54.85 310.47 L 46.62 309.1 L 38.39 307.47 L 32.57 304.96 L 30.19 301.48 L 28.85 297.72 L 20.7 295.27 L 17.98 291.59 L 14.83 287.91 L 12.73 283.99 L 11.68 279.88 L 10.71 275.76 L 7.81 271.78 L 6.98 267.56 L 3.73 263.46 L 0.54 259.25 L -0.08 254.88 L 0.89 250.5 L 2.92 246.17 L 0.54 241.75 L 2.73 237.49 L 3.99 233.23 L 3.83 228.88 L 4.74 224.62 L 6.72 220.51 L 9.76 216.6 L 11.87 212.62 L 16.5 209.15 L 19.71 205.54 L 24.94 202.45 L 25.81 198.51 L 30.63 195.56 L 35.01 192.62 L 45.66 191.62 L 52.94 189.95 L 55.92 187.12 L 71.72 188.77 L 77.99 187.53 L 86.58 187.39 L 90.49 185.65 L 95.79 184.62 L 96.51 181.72 L 87.76 174.38 L 76.53 165.41 L 71.81 159.2 L 67.69 153.03 L 60.67 145 L 57.78 138.94 L 56.75 133.79 L 55.85 128.56 L 56.75 124.35 L 54.84 118.19 L 55.54 113.64 L 57.55 109.95 L 57.64 104.79 L 58.64 100.21 L 60.51 96.24 L 61.7 91.66 L 62.61 86.74 L 65.5 83.48 L 69.54 81.29 L 72.16 77.8 L 75.2 74.7 L 78.3 71.66 L 80.42 67.58 L 83.64 64.63 L 87.57 62.49 L 91.52 60.43 L 94.86 57.68 L 98.86 55.77 L 104.99 56.74 L 110.75 57.46 L 114.71 55.86 L 119.53 55.58 L 123.76 54.57 L 128 53.66 L 134.03 55.83 L 138.44 55.55 L 144.77 58.86 L 150.01 60.57 L 157.43 66.85 L 165.25 74.68 L 170.87 78.65 L 179.77 90.53 L 184.92 94.83 L 187.65 93.7 L 186.63 82.82 L 188.54 78.9 L 187.64 66.49 L 188.7 58.75 L 189.57 49.57 L 190.6 39.87 L 193.51 35.95 L 196.42 31.59 L 199.8 28.72 L 202.32 21.5 L 205.95 18.72 L 209.83 16.99 L 213.67 14.82 L 217.51 12.23 L 221.19 7.71 L 225.27 5.73 L 229.42 3.83 L 233.76 3.99 L 238.01 2.73 L 242.31 1.54 L 246.64 0.92 L 251 0.89 L 255.36 0.92 L 259.76 -0.46 L 264.04 1.73 L 268.38 1.99 L 272.58 3.83 L 276.62 6.73 L 280.57 9.69 L 284.49 12.23 L 288.48 13.84 L 292.61 14.53 L 296.43 16.76 L 299.47 22.48 L 302.43 27.75 L 305.58 31.59 L 308.49 35.95 L 309.47 46.6 L 311.41 52.91 L 313.46 58.28 L 313.38 69.33 L 315.34 73.73 L 313.4 87.95 L 314.35 93.7 L 316.69 95.75 L 322.63 89.61 L 331.56 77.74 L 335.66 76.93 L 341.17 73.53 L 347.76 68.51 L 355.05 62.79 L 360.56 60.74 L 366.94 57.54 L 372.15 56.62 L 376.87 56.67 L 383.03 54.75 L 387.29 55.86 L 390.96 57.86 L 397.01 56.74 L 401.6 57.74 L 406.2 58.84 L 410.48 60.43 L 415.09 61.74 L 418.36 64.63 L 419.53 69.77 L 424.74 70.58 L 427.86 73.64 L 430.2 77.45 L 432.46 81.29 L 433.9 85.82 L 435.24 90.35 L 439.15 92.62 L 441.49 96.24 L 442.18 101.13 L 443.16 105.69 L 444.45 109.95 L 445.23 114.5 L 445.09 119.58 L 444.41 124.9 L 443.18 130.41 L 438.82 137.65 L 438.16 142.44 L 436.08 147.91 L 428.13 156.32 L 427.08 160.79 L 417.38 169.35 L 412.43 175.23 L 409.15 180.09 L 400.23 187.16 L 406.41 187.71 L 414.95 187.57 L 424.01 187.53 L 440.21 185.35 L 445.12 187.43 L 451.46 189.21 L 456.34 191.62 L 464.1 193.4 L 469.43 196.04 L 473.27 199.19 L 476.57 202.55 L 482.29 205.54 L 486.48 208.98 L 486.18 213.25 L 487.29 217.29 L 493.29 220.75 L 497.26 224.62 L 498.17 228.88 L 497.01 233.3 L 497.28 237.59 L 499.46 241.82 L 500.08 246.15 Z" fill="CLASSIC_FILL" stroke="CLASSIC_STROKE" stroke-width="18" stroke-linejoin="round" stroke-linecap="round" />
</svg>